<svg width="55" height="93" viewBox="0 0 55 93" fill="none" xmlns="http://www.w3.org/2000/svg">
<rect width="55" height="93" fill="white"/>
<path d="M18.2443 15.5455C18.2443 17.5398 17.8842 19.2633 17.1641 20.7159C16.4439 22.1686 15.456 23.2888 14.2003 24.0767C12.9446 24.8646 11.5104 25.2585 9.89773 25.2585C8.28504 25.2585 6.85085 24.8646 5.59517 24.0767C4.33949 23.2888 3.35156 22.1686 2.63139 20.7159C1.91122 19.2633 1.55114 17.5398 1.55114 15.5455C1.55114 13.5511 1.91122 11.8277 2.63139 10.375C3.35156 8.92235 4.33949 7.80208 5.59517 7.0142C6.85085 6.22633 8.28504 5.83239 9.89773 5.83239C11.5104 5.83239 12.9446 6.22633 14.2003 7.0142C15.456 7.80208 16.4439 8.92235 17.1641 10.375C17.8842 11.8277 18.2443 13.5511 18.2443 15.5455ZM16.0284 15.5455C16.0284 13.9081 15.7545 12.5263 15.2067 11.3999C14.665 10.2734 13.9295 9.42093 13 8.84233C12.0767 8.26373 11.0426 7.97443 9.89773 7.97443C8.75284 7.97443 7.71567 8.26373 6.78622 8.84233C5.86293 9.42093 5.12737 10.2734 4.57955 11.3999C4.03788 12.5263 3.76705 13.9081 3.76705 15.5455C3.76705 17.1828 4.03788 18.5646 4.57955 19.6911C5.12737 20.8175 5.86293 21.67 6.78622 22.2486C7.71567 22.8272 8.75284 23.1165 9.89773 23.1165C11.0426 23.1165 12.0767 22.8272 13 22.2486C13.9295 21.67 14.665 20.8175 15.2067 19.6911C15.7545 18.5646 16.0284 17.1828 16.0284 15.5455ZM23.978 16.4688V25H21.799V6.09091H23.978V13.0341H24.1626C24.495 12.3016 24.9936 11.7199 25.6584 11.2891C26.3293 10.852 27.2218 10.6335 28.3359 10.6335C29.3023 10.6335 30.1487 10.8274 30.875 11.2152C31.6013 11.5968 32.1645 12.1847 32.5646 12.9787C32.9709 13.7666 33.174 14.7699 33.174 15.9886V25H30.995V16.1364C30.995 15.0099 30.7027 14.139 30.1179 13.5234C29.5393 12.9018 28.736 12.5909 27.7081 12.5909C26.9941 12.5909 26.3539 12.7417 25.7876 13.0433C25.2275 13.3449 24.7843 13.785 24.4581 14.3636C24.138 14.9422 23.978 15.6439 23.978 16.4688ZM2.28977 37.0909H5.02273L11.4489 52.7869H11.6705L18.0966 37.0909H20.8295V56H18.6875V41.6335H18.5028L12.5938 56H10.5256L4.61648 41.6335H4.43182V56H2.28977V37.0909ZM26.5286 61.3182C26.1593 61.3182 25.83 61.2874 25.5407 61.2259C25.2514 61.1705 25.0513 61.1151 24.9405 61.0597L25.4945 59.1392C26.0239 59.2746 26.4917 59.3239 26.8979 59.2869C27.3042 59.25 27.6642 59.0684 27.9782 58.7422C28.2982 58.4221 28.5906 57.902 28.8553 57.1818L29.2615 56.0739L24.0172 41.8182H26.3809L30.2956 53.1193H30.4434L34.3581 41.8182H36.7218L30.7019 58.0682C30.431 58.8007 30.0956 59.407 29.6955 59.8871C29.2954 60.3733 28.8307 60.7334 28.3013 60.9673C27.7781 61.2012 27.1872 61.3182 26.5286 61.3182ZM2.28977 87V68.0909H8.90057C10.2178 68.0909 11.3042 68.3187 12.1598 68.7741C13.0154 69.2235 13.6525 69.8298 14.071 70.593C14.4896 71.3501 14.6989 72.1903 14.6989 73.1136C14.6989 73.9261 14.5542 74.5971 14.2649 75.1264C13.9818 75.6558 13.6063 76.0743 13.1385 76.3821C12.6768 76.6899 12.1752 76.9176 11.6335 77.0653V77.25C12.2121 77.2869 12.7938 77.4901 13.3786 77.8594C13.9633 78.2287 14.4527 78.758 14.8466 79.4474C15.2405 80.1368 15.4375 80.9801 15.4375 81.9773C15.4375 82.9252 15.2221 83.7777 14.7912 84.5348C14.3603 85.2919 13.6802 85.892 12.7507 86.3352C11.8213 86.7784 10.6117 87 9.12216 87H2.28977ZM4.57955 84.9688H9.12216C10.6179 84.9688 11.6797 84.6795 12.3075 84.1009C12.9415 83.5161 13.2585 82.8082 13.2585 81.9773C13.2585 81.3371 13.0954 80.7462 12.7692 80.2045C12.4429 79.6567 11.9782 79.2197 11.375 78.8935C10.7718 78.5611 10.0578 78.3949 9.23296 78.3949H4.57955V84.9688ZM4.57955 76.4006H8.82671C9.5161 76.4006 10.1378 76.2652 10.6918 75.9943C11.2519 75.7235 11.6951 75.3419 12.0213 74.8494C12.3537 74.357 12.5199 73.7784 12.5199 73.1136C12.5199 72.2827 12.2306 71.5779 11.652 70.9993C11.0734 70.4145 10.1563 70.1222 8.90057 70.1222H4.57955V76.4006ZM21.0835 68.0909V87H18.9045V68.0909H21.0835ZM30.8358 87.2955C29.5555 87.2955 28.4321 86.9908 27.4657 86.3814C26.5055 85.772 25.7546 84.9195 25.2129 83.8239C24.6774 82.7282 24.4096 81.4479 24.4096 79.983C24.4096 78.5057 24.6774 77.2161 25.2129 76.1143C25.7546 75.0125 26.5055 74.157 27.4657 73.5476C28.4321 72.9382 29.5555 72.6335 30.8358 72.6335C32.1161 72.6335 33.2363 72.9382 34.1966 73.5476C35.1629 74.157 35.9139 75.0125 36.4494 76.1143C36.9911 77.2161 37.2619 78.5057 37.2619 79.983C37.2619 81.4479 36.9911 82.7282 36.4494 83.8239C35.9139 84.9195 35.1629 85.772 34.1966 86.3814C33.2363 86.9908 32.1161 87.2955 30.8358 87.2955ZM30.8358 85.3381C31.8083 85.3381 32.6085 85.0888 33.2363 84.5902C33.8642 84.0916 34.3289 83.4361 34.6305 82.6236C34.9321 81.8111 35.0829 80.9309 35.0829 79.983C35.0829 79.035 34.9321 78.1518 34.6305 77.3331C34.3289 76.5144 33.8642 75.8527 33.2363 75.348C32.6085 74.8433 31.8083 74.5909 30.8358 74.5909C29.8632 74.5909 29.063 74.8433 28.4352 75.348C27.8074 75.8527 27.3426 76.5144 27.041 77.3331C26.7394 78.1518 26.5886 79.035 26.5886 79.983C26.5886 80.9309 26.7394 81.8111 27.041 82.6236C27.3426 83.4361 27.8074 84.0916 28.4352 84.5902C29.063 85.0888 29.8632 85.3381 30.8358 85.3381ZM46.3125 92.6136C45.2599 92.6136 44.3551 92.4782 43.598 92.2074C42.8409 91.9427 42.21 91.5919 41.7053 91.1548C41.2067 90.724 40.8097 90.2623 40.5142 89.7699L42.25 88.5511C42.447 88.8097 42.6963 89.1051 42.9979 89.4375C43.2995 89.776 43.7119 90.0684 44.2351 90.3146C44.7644 90.567 45.4569 90.6932 46.3125 90.6932C47.4574 90.6932 48.4022 90.4162 49.147 89.8622C49.8918 89.3082 50.2642 88.4403 50.2642 87.2585V84.3778H50.0795C49.9195 84.6364 49.6918 84.9564 49.3963 85.3381C49.107 85.7135 48.6884 86.049 48.1406 86.3445C47.599 86.6338 46.8665 86.7784 45.9432 86.7784C44.7983 86.7784 43.7704 86.5076 42.8594 85.9659C41.9545 85.4242 41.2375 84.6364 40.7081 83.6023C40.1849 82.5682 39.9233 81.3125 39.9233 79.8352C39.9233 78.3826 40.1787 77.1177 40.6896 76.0405C41.2005 74.9571 41.9115 74.12 42.8224 73.5291C43.7334 72.9321 44.786 72.6335 45.9801 72.6335C46.9034 72.6335 47.6359 72.7874 48.1776 73.0952C48.7254 73.3968 49.1439 73.7415 49.4332 74.1293C49.7287 74.5109 49.9564 74.8248 50.1165 75.071H50.3381V72.8182H52.4432V87.4062C52.4432 88.625 52.1662 89.616 51.6122 90.3793C51.0644 91.1487 50.3258 91.7119 49.3963 92.0689C48.473 92.4321 47.4451 92.6136 46.3125 92.6136ZM46.2386 84.821C47.1127 84.821 47.8513 84.621 48.4545 84.2209C49.0578 83.8208 49.5163 83.2453 49.8303 82.4943C50.1442 81.7434 50.3011 80.8447 50.3011 79.7983C50.3011 78.7765 50.1473 77.8748 49.8395 77.093C49.5317 76.3113 49.0762 75.6989 48.473 75.2557C47.8698 74.8125 47.125 74.5909 46.2386 74.5909C45.3153 74.5909 44.5459 74.8248 43.9304 75.2926C43.321 75.7604 42.8625 76.3883 42.5547 77.1761C42.2531 77.964 42.1023 78.8381 42.1023 79.7983C42.1023 80.7831 42.2562 81.6541 42.5639 82.4112C42.8778 83.1622 43.3395 83.7531 43.9489 84.1839C44.5644 84.6087 45.3277 84.821 46.2386 84.821Z" fill="#111111"/>
</svg>
